<svg width="13" height="13" viewBox="0 0 13 13" fill="none" xmlns="http://www.w3.org/2000/svg">
<g clip-path="url(#clip0_2139_10778)">
<path d="M12.7157 5.20604C12.6774 5.0871 12.6049 4.98208 12.5072 4.90408C12.4096 4.82608 12.2911 4.77854 12.1667 4.7674L8.70318 4.45294L7.33356 1.24732C7.28442 1.1325 7.20265 1.03462 7.0984 0.965831C6.99414 0.897042 6.87199 0.860366 6.74709 0.860352C6.62212 0.860365 6.4999 0.897106 6.39563 0.966007C6.29136 1.03491 6.20964 1.13293 6.16063 1.2479L4.79101 4.45294L1.32701 4.76747C1.2027 4.77885 1.08446 4.82647 0.986966 4.90442C0.889467 4.98237 0.816989 5.08722 0.77852 5.20597C0.739749 5.32475 0.736758 5.45231 0.769921 5.57277C0.803084 5.69324 0.870937 5.80129 0.965036 5.88349L3.58304 8.17949L2.81108 11.5801C2.78323 11.7021 2.7919 11.8296 2.83599 11.9467C2.88008 12.0638 2.95765 12.1653 3.05904 12.2386C3.16761 12.3175 3.29836 12.3601 3.43258 12.3602C3.54782 12.3601 3.66085 12.3286 3.75958 12.2692L6.74716 10.4836L9.73365 12.2692C9.84059 12.3335 9.9641 12.3649 10.0888 12.3594C10.2135 12.354 10.3338 12.312 10.4347 12.2386C10.5361 12.1652 10.6136 12.0637 10.6577 11.9466C10.7018 11.8296 10.7105 11.7021 10.6828 11.5801L9.91077 8.17949L12.5288 5.88401C12.6229 5.80174 12.6909 5.69363 12.7241 5.57308C12.7574 5.45254 12.7545 5.32488 12.7158 5.20597L12.7157 5.20604Z" fill="#FBBF24"/>
</g>
<defs>
<clipPath id="clip0_2139_10778">
<rect width="12" height="12" fill="white" transform="translate(0.74707 0.630371)"/>
</clipPath>
</defs>
</svg>
