<svg xmlns="http://www.w3.org/2000/svg" width="31" height="31" viewBox="0 0 31 31" fill="#5CF8D2">
<path fill-rule="evenodd" clip-rule="evenodd" d="M15.5346 6.74354C16.3434 6.74354 16.9998 6.08861 16.9998 5.27836V2.348C16.9998 1.53775 16.3434 0.882812 15.5346 0.882812C14.7259 0.882812 14.0695 1.53775 14.0695 2.348V5.27836C14.0695 6.08861 14.7259 6.74354 15.5346 6.74354ZM15.5354 18.4658C13.9193 18.4658 12.605 17.1515 12.605 15.5354C12.605 13.9193 13.9193 12.605 15.5354 12.605C17.1515 12.605 18.4658 13.9193 18.4658 15.5354C18.4658 17.1515 17.1515 18.4658 15.5354 18.4658ZM15.5354 9.67467C12.3032 9.67467 9.67467 12.3032 9.67467 15.5354C9.67467 18.7676 12.3032 21.3961 15.5354 21.3961C18.7676 21.3961 21.3961 18.7676 21.3961 15.5354C21.3961 12.3032 18.7676 9.67467 15.5354 9.67467ZM25.7909 14.0695H28.7213C29.5301 14.0695 30.1865 14.7244 30.1865 15.5346C30.1865 16.3449 29.5301 16.9998 28.7213 16.9998H25.7909C24.9821 16.9998 24.3257 16.3449 24.3257 15.5346C24.3257 14.7244 24.9821 14.0695 25.7909 14.0695ZM6.74354 15.5346C6.74354 14.7244 6.08714 14.0695 5.27836 14.0695H2.348C1.53921 14.0695 0.882812 14.7244 0.882812 15.5346C0.882812 16.3449 1.53921 16.9998 2.348 16.9998H5.27836C6.08714 16.9998 6.74354 16.3449 6.74354 15.5346ZM4.99472 5.35578C5.55735 4.77556 6.48481 4.75798 7.06649 5.31915L9.17489 7.35575C9.75656 7.91692 9.77268 8.84584 9.21005 9.42752C8.92287 9.72495 8.54046 9.8744 8.15658 9.8744C7.79029 9.8744 7.42399 9.7396 7.13828 9.46415L5.02988 7.42754C4.44821 6.86638 4.43209 5.93745 4.99472 5.35578ZM22.9121 9.8744C23.2784 9.8744 23.6447 9.73814 23.9304 9.46415L26.0388 7.42754C26.6205 6.86491 26.6366 5.93599 26.074 5.35578C25.5128 4.77556 24.5868 4.75798 24.0022 5.31915L21.8938 7.35429C21.3121 7.91692 21.296 8.84584 21.8586 9.42605C22.1458 9.72349 22.5282 9.8744 22.9121 9.8744ZM14.0695 25.7909C14.0695 24.9807 14.7259 24.3257 15.5346 24.3257C16.3434 24.3257 16.9998 24.9807 16.9998 25.7909V28.7213C16.9998 29.5315 16.3434 30.1865 15.5346 30.1865C14.7259 30.1865 14.0695 29.5315 14.0695 28.7213V25.7909ZM23.9304 21.605C23.3487 21.0438 22.4213 21.0614 21.8586 21.6416C21.296 22.2233 21.3121 23.1522 21.8938 23.7134L24.0022 25.75C24.2879 26.0255 24.6542 26.1602 25.0205 26.1602C25.4044 26.1602 25.7868 26.0108 26.074 25.7134C26.6366 25.1317 26.6205 24.2028 26.0388 23.6416L23.9304 21.605ZM5.02988 23.6416L7.13828 21.605C7.72142 21.0438 8.64889 21.0614 9.21005 21.6416C9.77268 22.2233 9.75656 23.1522 9.17489 23.7134L7.06649 25.75C6.78078 26.0255 6.41448 26.1602 6.04819 26.1602C5.66431 26.1602 5.2819 26.0108 4.99472 25.7134C4.43209 25.1317 4.44821 24.2028 5.02988 23.6416Z" fill="#5CF8D2"/>
</svg>