<svg width="34" height="30" viewBox="0 0 34 30" fill="none" xmlns="http://www.w3.org/2000/svg">
<g clip-path="url(#clip0_2139_10302)">
<path d="M6.81152 5.41266H9.03415V7.63072H6.81152V5.41266Z" fill="white"/>
<path d="M24.5908 5.41266H26.8134V7.63072H24.5908V5.41266Z" fill="white"/>
<path d="M6.81152 7.63223H9.03415V9.8503H6.81152V7.63223Z" fill="white"/>
<path d="M9.03223 7.63223H11.2548V9.8503H9.03223V7.63223Z" fill="white"/>
<path d="M22.3682 7.63223H24.5908V9.8503H22.3682V7.63223Z" fill="white"/>
<path d="M24.5908 7.63223H26.8134V9.8503H24.5908V7.63223Z" fill="white"/>
<path d="M6.81152 9.84732H9.03415V12.0654H6.81152V9.84732Z" fill="white"/>
<path d="M24.5908 9.84732H26.8134V12.0654H24.5908V9.84732Z" fill="white"/>
<path d="M6.81152 14.285H9.03415V16.503H6.81152V14.285Z" fill="#E38334"/>
<path d="M6.81348 3.19608H9.0361V5.41414H6.81348V3.19608Z" fill="#E38334"/>
<path d="M24.5918 3.19608H26.8144V5.41414H24.5918V3.19608Z" fill="#E38334"/>
<path d="M9.03516 5.41266H11.2578V7.63072H9.03516V5.41266Z" fill="#E38334"/>
<path d="M22.3682 5.41266H24.5908V7.63072H22.3682V5.41266Z" fill="#E38334"/>
<path d="M11.2578 7.62924H13.4804V9.84731H11.2578V7.62924Z" fill="#E38334"/>
<path d="M20.1465 7.62924H22.3691V9.84731H20.1465V7.62924Z" fill="#E38334"/>
<path d="M13.4805 9.84732H15.7031V12.0654H13.4805V9.84732Z" fill="#E38334"/>
<path d="M15.7002 9.84732H17.9228V12.0654H15.7002V9.84732Z" fill="#E38334"/>
<path d="M17.9238 9.84732H20.1465V12.0654H17.9238V9.84732Z" fill="#E38334"/>
<path d="M9.03516 12.0669H11.2578V14.285H9.03516V12.0669Z" fill="#E38334"/>
<path d="M11.2578 12.0669H13.4804V14.285H11.2578V12.0669Z" fill="#E38334"/>
<path d="M13.4805 12.0669H15.7031V14.285H13.4805V12.0669Z" fill="#E38334"/>
<path d="M15.7002 12.0669H17.9228V14.285H15.7002V12.0669Z" fill="#E38334"/>
<path d="M17.9238 12.0669H20.1465V14.285H17.9238V12.0669Z" fill="#E38334"/>
<path d="M20.1465 12.0669H22.3691V14.285H20.1465V12.0669Z" fill="#E38334"/>
<path d="M22.3682 12.0669H24.5908V14.285H22.3682V12.0669Z" fill="#E38334"/>
<path d="M9.03516 14.282H11.2578V16.5H9.03516V14.282Z" fill="#E38334"/>
<path d="M11.2578 14.282H13.4804V16.5H11.2578V14.282Z" fill="#E38334"/>
<path d="M13.4805 14.282H15.7031V16.5H13.4805V14.282Z" fill="#E38334"/>
<path d="M15.7002 14.282H17.9228V16.5H15.7002V14.282Z" fill="#E38334"/>
<path d="M17.9238 14.282H20.1465V16.5H17.9238V14.282Z" fill="#E38334"/>
<path d="M20.1465 14.282H22.3691V16.5H20.1465V14.282Z" fill="#E38334"/>
<path d="M22.3682 14.282H24.5908V16.5H22.3682V14.282Z" fill="#E38334"/>
<path d="M24.5918 14.282H26.8144V16.5H24.5918V14.282Z" fill="#E38334"/>
<path d="M6.81348 16.5002H9.0361V18.7182H6.81348V16.5002Z" fill="#E38334"/>
<path d="M11.2578 16.5002H13.4804V18.7182H11.2578V16.5002Z" fill="#E38334"/>
<path d="M13.4805 16.5001H15.7031V18.7181H13.4805V16.5001Z" fill="#E38334"/>
<path d="M15.7002 16.5001H17.9228V18.7181H15.7002V16.5001Z" fill="#E38334"/>
<path d="M17.9238 16.5001H20.1465V18.7181H17.9238V16.5001Z" fill="#E38334"/>
<path d="M20.1465 16.5001H22.3691V18.7181H20.1465V16.5001Z" fill="#E38334"/>
<path d="M24.5918 16.5001H26.8144V18.7181H24.5918V16.5001Z" fill="#E38334"/>
<path d="M4.59082 18.7181H6.81344V20.9362H4.59082V18.7181Z" fill="#E38334"/>
<path d="M6.81348 18.7181H9.0361V20.9362H6.81348V18.7181Z" fill="#E38334"/>
<path d="M11.2578 18.7181H13.4804V20.9362H11.2578V18.7181Z" fill="#E38334"/>
<path d="M20.1465 18.7181H22.3691V20.9362H20.1465V18.7181Z" fill="#E38334"/>
<path d="M24.5918 18.7181H26.8144V20.9362H24.5918V18.7181Z" fill="#E38334"/>
<path d="M26.8125 18.7181H29.0351V20.9362H26.8125V18.7181Z" fill="#E38334"/>
<path d="M4.59082 20.9362H6.81344V23.1543H4.59082V20.9362Z" fill="#E38334"/>
<path d="M6.81348 20.9362H9.0361V23.1543H6.81348V20.9362Z" fill="#E38334"/>
<path d="M9.03516 20.9362H11.2578V23.1543H9.03516V20.9362Z" fill="#E38334"/>
<path d="M11.2578 20.9362H13.4804V23.1543H11.2578V20.9362Z" fill="#E38334"/>
<path d="M20.1465 20.9362H22.3691V23.1543H20.1465V20.9362Z" fill="#E38334"/>
<path d="M22.3682 20.9362H24.5908V23.1543H22.3682V20.9362Z" fill="#E38334"/>
<path d="M24.5918 20.9362H26.8144V23.1543H24.5918V20.9362Z" fill="#E38334"/>
<path d="M26.8125 20.9362H29.0351V23.1543H26.8125V20.9362Z" fill="#E38334"/>
<path d="M2.36914 23.1543H4.59176V25.3724H2.36914V23.1543Z" fill="#E38334"/>
<path d="M4.59082 23.1543H6.81344V25.3724H4.59082V23.1543Z" fill="#E38334"/>
<path d="M6.81348 23.1543H9.0361V25.3724H6.81348V23.1543Z" fill="#E38334"/>
<path d="M9.03516 23.1543H11.2578V25.3724H9.03516V23.1543Z" fill="#E38334"/>
<path d="M22.3682 23.1543H24.5908V25.3724H22.3682V23.1543Z" fill="#E38334"/>
<path d="M24.5918 23.1543H26.8144V25.3724H24.5918V23.1543Z" fill="#E38334"/>
<path d="M26.8125 23.1543H29.0351V25.3724H26.8125V23.1543Z" fill="#E38334"/>
<path d="M29.0342 23.1543H31.2568V25.3724H29.0342V23.1543Z" fill="#E38334"/>
<path d="M13.4795 20.9347H15.7021V23.1528H13.4795V20.9347Z" fill="white"/>
<path d="M17.9229 20.9347H20.1455V23.1528H17.9229V20.9347Z" fill="white"/>
<path d="M11.2578 23.1543H13.4804V25.3724H11.2578V23.1543Z" fill="white"/>
<path d="M13.4795 23.1543H15.7021V25.3724H13.4795V23.1543Z" fill="white"/>
<path d="M15.7002 23.1543H17.9228V25.3724H15.7002V23.1543Z" fill="white"/>
<path d="M17.9229 23.1543H20.1455V25.3724H17.9229V23.1543Z" fill="white"/>
<path d="M20.1455 23.1543H22.3681V25.3724H20.1455V23.1543Z" fill="white"/>
<path d="M6.81152 25.3694H9.03415V27.5875H6.81152V25.3694Z" fill="white"/>
<path d="M9.03223 25.3694H11.2548V27.5875H9.03223V25.3694Z" fill="white"/>
<path d="M11.2578 25.3694H13.4804V27.5875H11.2578V25.3694Z" fill="white"/>
<path d="M13.4795 25.3694H15.7021V27.5875H13.4795V25.3694Z" fill="white"/>
<path d="M15.7002 25.3694H17.9228V27.5875H15.7002V25.3694Z" fill="white"/>
<path d="M17.9229 25.3694H20.1455V27.5875H17.9229V25.3694Z" fill="white"/>
<path d="M20.1455 25.3694H22.3681V27.5875H20.1455V25.3694Z" fill="white"/>
<path d="M22.3682 25.3694H24.5908V27.5875H22.3682V25.3694Z" fill="white"/>
<path d="M24.5908 25.3694H26.8134V27.5875H24.5908V25.3694Z" fill="white"/>
<path d="M6.81152 0.976501H9.03415V3.19457H6.81152V0.976501Z" fill="black"/>
<path d="M24.5908 0.976501H26.8134V3.19457H24.5908V0.976501Z" fill="black"/>
<path d="M4.5918 3.19608H6.81442V5.41414H4.5918V3.19608Z" fill="black"/>
<path d="M9.03418 3.19608H11.2568V5.41414H9.03418V3.19608Z" fill="black"/>
<path d="M22.3682 3.19608H24.5908V5.41414H22.3682V3.19608Z" fill="black"/>
<path d="M26.8096 3.19608H29.0322V5.41414H26.8096V3.19608Z" fill="black"/>
<path d="M4.5918 5.40967H6.81442V7.62773H4.5918V5.40967Z" fill="black"/>
<path d="M11.2568 5.40967H13.4795V7.62773H11.2568V5.40967Z" fill="black"/>
<path d="M20.1436 5.40967H22.3662V7.62773H20.1436V5.40967Z" fill="black"/>
<path d="M26.8096 5.40967H29.0322V7.62773H26.8096V5.40967Z" fill="black"/>
<path d="M4.5918 7.62784H6.81442V9.8459H4.5918V7.62784Z" fill="black"/>
<path d="M13.4795 7.62775H15.7021V9.84581H13.4795V7.62775Z" fill="black"/>
<path d="M15.7002 7.62775H17.9228V9.84581H15.7002V7.62775Z" fill="black"/>
<path d="M17.9229 7.62775H20.1455V9.84581H17.9229V7.62775Z" fill="black"/>
<path d="M26.8096 7.62775H29.0322V9.84581H26.8096V7.62775Z" fill="black"/>
<path d="M4.5918 9.84732H6.81442V12.0654H4.5918V9.84732Z" fill="black"/>
<path d="M9.03418 9.84732H11.2568V12.0654H9.03418V9.84732Z" fill="black"/>
<path d="M11.2568 9.84732H13.4795V12.0654H11.2568V9.84732Z" fill="black"/>
<path d="M20.1436 9.84732H22.3662V12.0654H20.1436V9.84732Z" fill="black"/>
<path d="M22.3682 9.84732H24.5908V12.0654H22.3682V9.84732Z" fill="black"/>
<path d="M26.8096 9.84732H29.0322V12.0654H26.8096V9.84732Z" fill="black"/>
<path d="M4.5918 12.0624H6.81442V14.2805H4.5918V12.0624Z" fill="black"/>
<path d="M6.81152 12.0624H9.03415V14.2805H6.81152V12.0624Z" fill="black"/>
<path d="M24.5908 12.0624H26.8134V14.2805H24.5908V12.0624Z" fill="black"/>
<path d="M26.8096 12.0624H29.0322V14.2805H26.8096V12.0624Z" fill="black"/>
<path d="M4.5918 14.2849H6.81442V16.5029H4.5918V14.2849Z" fill="black"/>
<path d="M26.8096 14.285H29.0322V16.503H26.8096V14.285Z" fill="black"/>
<path d="M4.5918 16.4986H6.81442V18.7166H4.5918V16.4986Z" fill="black"/>
<path d="M9.03418 16.4986H11.2568V18.7166H9.03418V16.4986Z" fill="black"/>
<path d="M22.3682 16.4986H24.5908V18.7166H22.3682V16.4986Z" fill="black"/>
<path d="M26.8096 16.4986H29.0322V18.7166H26.8096V16.4986Z" fill="black"/>
<path d="M2.36621 18.7166H4.58883V20.9347H2.36621V18.7166Z" fill="black"/>
<path d="M9.03418 18.7166H11.2568V20.9347H9.03418V18.7166Z" fill="black"/>
<path d="M13.4795 18.7166H15.7021V20.9347H13.4795V18.7166Z" fill="black"/>
<path d="M15.7002 18.7166H17.9228V20.9347H15.7002V18.7166Z" fill="black"/>
<path d="M17.9229 18.7166H20.1455V20.9347H17.9229V18.7166Z" fill="black"/>
<path d="M22.3682 18.7166H24.5908V20.9347H22.3682V18.7166Z" fill="black"/>
<path d="M29.0322 18.7166H31.2548V20.9347H29.0322V18.7166Z" fill="black"/>
<path d="M2.36621 20.9347H4.58883V23.1528H2.36621V20.9347Z" fill="black"/>
<path d="M15.7002 20.9347H17.9228V23.1528H15.7002V20.9347Z" fill="black"/>
<path d="M29.0322 20.9348H31.2548V23.1528H29.0322V20.9348Z" fill="black"/>
<path d="M0.145508 23.1543H2.36813V25.3724H0.145508V23.1543Z" fill="black"/>
<path d="M31.2568 23.1543H33.4795V25.3724H31.2568V23.1543Z" fill="black"/>
<path d="M2.36621 25.3724H4.58883V27.5904H2.36621V25.3724Z" fill="black"/>
<path d="M4.5918 25.3724H6.81442V27.5904H4.5918V25.3724Z" fill="black"/>
<path d="M26.8096 25.3724H29.0322V27.5904H26.8096V25.3724Z" fill="black"/>
<path d="M29.0322 25.3724H31.2548V27.5904H29.0322V25.3724Z" fill="black"/>
<path d="M6.81152 27.586H9.03415V29.804H6.81152V27.586Z" fill="black"/>
<path d="M9.03418 27.5861H11.2568V29.8042H9.03418V27.5861Z" fill="black"/>
<path d="M11.2568 27.586H13.4795V29.804H11.2568V27.586Z" fill="black"/>
<path d="M13.4795 27.586H15.7021V29.804H13.4795V27.586Z" fill="black"/>
<path d="M15.7002 27.586H17.9228V29.804H15.7002V27.586Z" fill="black"/>
<path d="M17.9229 27.586H20.1455V29.804H17.9229V27.586Z" fill="black"/>
<path d="M20.1436 27.586H22.3662V29.804H20.1436V27.586Z" fill="black"/>
<path d="M22.3682 27.586H24.5908V29.804H22.3682V27.586Z" fill="black"/>
<path d="M24.5908 27.586H26.8134V29.804H24.5908V27.586Z" fill="black"/>
</g>
<defs>
<clipPath id="clip0_2139_10302">
<rect width="33.3333" height="28.8288" fill="white" transform="translate(0.145508 0.979492)"/>
</clipPath>
</defs>
</svg>
